<svg xmlns="http://www.w3.org/2000/svg" xmlns:svg="http://www.w3.org/2000/svg" id="svg26630" width="32" height="32" version="1.1" viewBox="0 0 8.467 8.467"><metadata id="metadata26627"/><g id="layer1" transform="translate(0,-288.53332)"><g id="g26592" transform="matrix(0.26313802,0,0,0.26313802,-666.44227,-1617.3418)"><path style="color:#000;clip-rule:nonzero;display:inline;overflow:visible;visibility:visible;opacity:1;isolation:auto;mix-blend-mode:normal;color-interpolation:sRGB;color-interpolation-filters:linearRGB;solid-color:#000;solid-opacity:1;fill:#000;fill-opacity:0;fill-rule:nonzero;stroke:#fff;stroke-width:4;stroke-linecap:round;stroke-linejoin:round;stroke-miterlimit:4;stroke-dasharray:none;stroke-dashoffset:0;stroke-opacity:1;color-rendering:auto;image-rendering:auto;shape-rendering:auto;text-rendering:auto;enable-background:accumulate" id="path26586" d="m 2545.9933,7264.692 a 8.6621027,6.0228944 0 0 1 -9.6599,-2.185 8.6621027,6.0228944 0 0 1 -0.032,-7.0631 8.6621027,6.0228944 0 0 1 9.6397,-2.2276"/><path id="path26588" d="m -2551.5262,7264.692 a 8.6621027,6.0228944 0 0 1 -9.6599,-2.185 8.6621027,6.0228944 0 0 1 -0.032,-7.0631 8.6621027,6.0228944 0 0 1 9.6397,-2.2276" transform="scale(-1,1)" style="color:#000;clip-rule:nonzero;display:inline;overflow:visible;visibility:visible;opacity:1;isolation:auto;mix-blend-mode:normal;color-interpolation:sRGB;color-interpolation-filters:linearRGB;solid-color:#000;solid-opacity:1;fill:#000;fill-opacity:0;fill-rule:nonzero;stroke:#fff;stroke-width:4;stroke-linecap:round;stroke-linejoin:round;stroke-miterlimit:4;stroke-dasharray:none;stroke-dashoffset:0;stroke-opacity:1;color-rendering:auto;image-rendering:auto;shape-rendering:auto;text-rendering:auto;enable-background:accumulate"/><path style="fill:none;fill-rule:evenodd;stroke:#fff;stroke-width:4;stroke-linecap:round;stroke-linejoin:miter;stroke-miterlimit:4;stroke-dasharray:none;stroke-opacity:1" id="path26590" d="m 2543.0232,7258.9604 h 11.4732"/></g></g></svg>