<svg xmlns="http://www.w3.org/2000/svg" xmlns:svg="http://www.w3.org/2000/svg" id="svg36397" width="112" height="112" version="1.1" viewBox="0 0 112 112"><metadata id="metadata36402"/><g id="layer1" transform="translate(0,-940.36216)"><g id="g36329" transform="matrix(2,0,0,2,-2547.9988,1730.1381)"><circle id="circle36331" cx="1301.999" cy="-366.888" r="28" style="color:#000;clip-rule:nonzero;display:inline;overflow:visible;visibility:visible;opacity:1;isolation:auto;mix-blend-mode:normal;color-interpolation:sRGB;color-interpolation-filters:linearRGB;solid-color:#000;solid-opacity:1;fill:#fff;fill-opacity:.19607843;fill-rule:nonzero;stroke:none;stroke-width:7.35426044;stroke-linecap:butt;stroke-linejoin:round;stroke-miterlimit:4;stroke-dasharray:none;stroke-dashoffset:0;stroke-opacity:1;color-rendering:auto;image-rendering:auto;shape-rendering:auto;text-rendering:auto;enable-background:accumulate"/><g style="fill:#fff" id="g36333" transform="matrix(0.04726801,0,0,0.0474995,1289.4994,-379.44919)"><g style="fill:#fff" id="g36335"><path style="fill:#fff" id="path36337" d="M 328.883,89.125 436.473,196.714 164.133,469.054 56.604,361.465 328.883,89.125 Z M 518.113,63.177 470.132,15.196 c -18.543,-18.543 -48.653,-18.543 -67.259,0 l -45.961,45.961 107.59,107.59 53.611,-53.611 c 14.382,-14.383 14.382,-37.577 0,-51.959 z M 0.3,512.69 c -1.958,8.812 5.998,16.708 14.811,14.565 L 135.002,498.186 27.473,390.597 0.3,512.69 Z"/></g></g></g></g></svg>