<svg xmlns="http://www.w3.org/2000/svg" width="50.497" height="50.61" viewBox="30.843 30.56 50.497 50.61"><g id="layer1" transform="matrix(1, 0, 0, 1, 0, -940.3621826171875)"><g id="g36329" transform="matrix(2,0,0,2,-2547.9988,1730.1381)"><g style="fill:#fff" id="g36333" transform="matrix(0.04726801,0,0,0.0474995,1289.4994,-379.44919)"><g style="fill:#fff" id="g36335"><path style="fill:#fff" id="path36337" d="M 328.883,89.125 436.473,196.714 164.133,469.054 56.604,361.465 328.883,89.125 Z M 518.113,63.177 470.132,15.196 c -18.543,-18.543 -48.653,-18.543 -67.259,0 l -45.961,45.961 107.59,107.59 53.611,-53.611 c 14.382,-14.383 14.382,-37.577 0,-51.959 z M 0.3,512.69 c -1.958,8.812 5.998,16.708 14.811,14.565 L 135.002,498.186 27.473,390.597 0.3,512.69 Z"/></g></g></g></g></svg>