<svg xmlns="http://www.w3.org/2000/svg" xmlns:svg="http://www.w3.org/2000/svg" id="svg16204" width="16" height="16" version="1.1" viewBox="0 0 16 16"><metadata id="metadata16209"/><g id="layer1" transform="translate(0,-1036.3622)"><path id="path15191-4" d="m 1.0408501,1043.2392 11.1878999,0 -4.8777001,-4.878 c -0.4517,-0.451 -0.4517,-1.084 0,-1.626 0.4516,-0.542 1.0839,-0.451 1.6259,0 l 6.6842001,6.865 c 0.4518,0.452 0.4518,1.084 0,1.626 l -6.7746001,6.774 c -0.1806,0.182 -0.4516,0.362 -0.8129,0.362 -0.3614,0 -0.5419,-0.08 -0.813,-0.362 -0.4516,-0.451 -0.4516,-1.083 0,-1.625 l 4.9681001,-4.878 -11.0975998,0 c -0.7226,0 -1.0839,-0.451 -1.0839,-1.084 0,-0.632 0.3613,-1.174 0.9935999,-1.174 z" class="st0" style="opacity:.49150002;fill:#000;fill-opacity:1"/></g></svg>