<svg xmlns="http://www.w3.org/2000/svg" xmlns:svg="http://www.w3.org/2000/svg" id="svg14103" width="64" height="64" version="1.1" viewBox="0 0 16.933 16.933"><metadata id="metadata14100"/><g id="layer1" transform="translate(0,-280.06665)"><g id="g14070" transform="matrix(0.04070627,0,0,0.04070627,515.28788,1024.6442)"><g id="g14716" transform="translate(-48.516596,132.08516)"><path id="path14066" d="m -12403.175,-18410.428 a 195,195 0 1 0 2,0 z" style="fill:none;stroke:#fff;stroke-width:26;stroke-opacity:1"/><path id="path14068" d="m -12402.175,-18410.428 v 390 m 195,-195 h -390 m 44,-120 a 260,260 0 0 0 302,0 m 0,240 a 260,260 0 0 0 -302,0 m 136,-310 a 250,250 0 0 0 0,382 m 30,0 a 250,250 0 0 0 0,-382" style="fill:none;stroke:#fff;stroke-width:18;stroke-opacity:1"/></g></g></g></svg>