<svg xmlns="http://www.w3.org/2000/svg" xmlns:svg="http://www.w3.org/2000/svg" id="svg16389" width="32" height="32" version="1.1" viewBox="0 0 32 32"><defs id="defs16391"><clipPath id="clipPath27913" clipPathUnits="userSpaceOnUse"><rect id="rect27915" width="10.05" height="28.02" x="14447.59" y="-16995.246" style="opacity:1;fill:red;fill-opacity:1;stroke:red;stroke-width:1;stroke-miterlimit:3.73333335;stroke-dasharray:none;stroke-opacity:1"/></clipPath></defs><metadata id="metadata16394"/><g id="g29020"><path id="path12638-7-0-1" d="m 4.32,25.92 24,0 0,-4 -3.68,-4.72 -5.76,1.68 -5.76,-6.48 -2.24,1.36 -2.56,-3.04 -3.997,8.037 z" style="fill:#fff;fill-opacity:1;fill-rule:evenodd;stroke:none;stroke-width:.16px;stroke-linecap:butt;stroke-linejoin:miter;stroke-opacity:1"/><path style="color:#000;clip-rule:nonzero;display:inline;overflow:visible;visibility:visible;opacity:1;isolation:auto;mix-blend-mode:normal;color-interpolation:sRGB;color-interpolation-filters:linearRGB;solid-color:#000;solid-opacity:1;fill:#fff;fill-opacity:1;fill-rule:nonzero;stroke:none;stroke-width:.31999999;stroke-linecap:butt;stroke-linejoin:miter;stroke-miterlimit:4;stroke-dasharray:none;stroke-dashoffset:0;stroke-opacity:1;color-rendering:auto;image-rendering:auto;shape-rendering:auto;text-rendering:auto;enable-background:accumulate" id="circle12640-3-6-9" d="m 27.52,8.321 a 3.999984,3.999984 0 0 1 -4,4 3.999984,3.999984 0 0 1 -4,-4 3.999984,3.999984 0 0 1 4,-4 3.999984,3.999984 0 0 1 4,4 z"/><path id="path12642-6-1-8" d="M 0.8,0 C 0.357,0 0,0.357 0,0.8 L 0,31.2 C 0,31.643 0.357,32 0.8,32 l 30.4,0 C 31.643,32 32,31.643 32,31.2 L 32,0.8 C 32,0.357 31.643,0 31.2,0 Z m 1.28,2.08 27.84,0 0,24.8 -27.84,0 z" style="color:#000;clip-rule:nonzero;display:inline;overflow:visible;visibility:visible;opacity:1;isolation:auto;mix-blend-mode:normal;color-interpolation:sRGB;color-interpolation-filters:linearRGB;solid-color:#000;solid-opacity:1;fill:#fff;fill-opacity:1;fill-rule:nonzero;stroke:none;stroke-width:.31999999;stroke-linecap:butt;stroke-linejoin:miter;stroke-miterlimit:4;stroke-dasharray:none;stroke-dashoffset:0;stroke-opacity:1;color-rendering:auto;image-rendering:auto;shape-rendering:auto;text-rendering:auto;enable-background:accumulate"/></g></svg>