<svg xmlns="http://www.w3.org/2000/svg" xmlns:svg="http://www.w3.org/2000/svg" id="svg20491" width="32" height="32" version="1.1" viewBox="0 0 8.467 8.467"><metadata id="metadata20488"/><g id="layer1" transform="translate(0,-288.53331)"><g id="layer1-7" transform="matrix(0.7500022,0,0,0.7500022,1.0583239,73.191016)"><g id="g21056" transform="matrix(0.64880321,0,0,0.64880321,1.7656845,103.65864)"><path style="fill:#fff;fill-opacity:1;stroke:none;stroke-width:.5945313" id="rect20354" d="m -1.0558971,290.43802 h 9.718565 v 7.55888 h -9.718565 z"/><path style="color:#000;font-style:normal;font-variant:normal;font-weight:400;font-stretch:normal;font-size:medium;line-height:normal;font-family:sans-serif;font-variant-ligatures:normal;font-variant-position:normal;font-variant-caps:normal;font-variant-numeric:normal;font-variant-alternates:normal;font-feature-settings:normal;text-indent:0;text-align:start;text-decoration:none;text-decoration-line:none;text-decoration-style:solid;text-decoration-color:#000;letter-spacing:normal;word-spacing:normal;text-transform:none;writing-mode:lr-tb;direction:ltr;text-orientation:mixed;dominant-baseline:auto;baseline-shift:baseline;text-anchor:start;white-space:normal;shape-padding:0;clip-rule:nonzero;display:inline;overflow:visible;visibility:visible;opacity:1;isolation:auto;mix-blend-mode:normal;color-interpolation:sRGB;color-interpolation-filters:linearRGB;solid-color:#000;solid-opacity:1;vector-effect:none;fill:#fff;fill-opacity:1;fill-rule:nonzero;stroke:none;stroke-width:1.74407053;stroke-linecap:round;stroke-linejoin:miter;stroke-miterlimit:4;stroke-dasharray:none;stroke-dashoffset:0;stroke-opacity:1;color-rendering:auto;image-rendering:auto;shape-rendering:auto;text-rendering:auto;enable-background:accumulate" id="path20363" d="m 3.8027344,284.94727 c -1.2450466,0 -2.3890271,0.66671 -3.14257815,1.73437 -0.75355108,1.06766 -1.16601562,2.5213 -1.16601563,4.25391 a 0.87212247,0.87212247 0 1 0 1.74414058,0 c 0,-1.45166 0.3572689,-2.55325 0.8476563,-3.24805 0.4903874,-0.6948 1.0637226,-0.99609 1.7167969,-0.99609 0.6530743,0 1.2283625,0.30129 1.71875,0.99609 0.4903874,0.6948 0.8476562,1.79639 0.8476562,3.24805 a 0.87212247,0.87212247 0 1 0 1.7441406,0 c 0,-1.73261 -0.4144176,-3.18625 -1.1679687,-4.25391 -0.7535511,-1.06766 -1.8975316,-1.73437 -3.1425781,-1.73437 z"/></g></g></g></svg>