<svg xmlns="http://www.w3.org/2000/svg" xmlns:svg="http://www.w3.org/2000/svg" id="svg20491" width="32" height="32" version="1.1" viewBox="0 0 8.467 8.467"><metadata id="metadata20488"/><g id="g23272" transform="matrix(0.75000002,0,0,0.75000002,1.0583333,1.0583331)"><path style="fill:#5d9bc7;fill-opacity:1;stroke:none;stroke-width:.38572454" id="rect18605-2-7" d="M 1.0806913,3.562556 H 7.3859758 V 8.4666665 H 1.0806913 Z"/><path style="color:#000;font-style:normal;font-variant:normal;font-weight:400;font-stretch:normal;font-size:medium;line-height:normal;font-family:sans-serif;font-variant-ligatures:normal;font-variant-position:normal;font-variant-caps:normal;font-variant-numeric:normal;font-variant-alternates:normal;font-feature-settings:normal;text-indent:0;text-align:start;text-decoration:none;text-decoration-line:none;text-decoration-style:solid;text-decoration-color:#000;letter-spacing:normal;word-spacing:normal;text-transform:none;writing-mode:lr-tb;direction:ltr;text-orientation:mixed;dominant-baseline:auto;baseline-shift:baseline;text-anchor:start;white-space:normal;shape-padding:0;clip-rule:nonzero;display:inline;overflow:visible;visibility:visible;opacity:1;isolation:auto;mix-blend-mode:normal;color-interpolation:sRGB;color-interpolation-filters:linearRGB;solid-color:#000;solid-opacity:1;vector-effect:none;fill:#5d9bc7;fill-opacity:1;fill-rule:nonzero;stroke:none;stroke-width:1.13153136;stroke-linecap:round;stroke-linejoin:miter;stroke-miterlimit:4;stroke-dasharray:none;stroke-dashoffset:0;stroke-opacity:1;color-rendering:auto;image-rendering:auto;shape-rendering:auto;text-rendering:auto;enable-background:accumulate" id="path18607-7-0" d="M 4.2324219,0 C 3.424651,0 2.6842071,0.43231707 2.1953125,1.125 1.7064179,1.8176829 1.4375,2.7606744 1.4375,3.8847656 a 0.56582226,0.56582226 0 1 0 1.1308594,0 c 0,-0.9418176 0.2326239,-1.6566454 0.5507812,-2.1074218 0.3181574,-0.4507765 0.6895749,-0.6464844 1.1132813,-0.6464844 0.4237065,0 0.797077,0.1957079 1.1152343,0.6464844 0.3181574,0.4507764 0.5507813,1.1656042 0.5507813,2.1074218 a 0.56582226,0.56582226 0 1 0 1.1308594,0 C 7.0292969,2.7606745 6.7603789,1.8176829 6.2714844,1.125 5.7825898,0.43231705 5.0401928,0 4.2324219,0 Z"/><path style="opacity:1;fill:#fff;fill-opacity:1;stroke:#fff;stroke-width:2.36811352;stroke-linecap:round;stroke-linejoin:round;stroke-miterlimit:4;stroke-dasharray:none;stroke-dashoffset:0;stroke-opacity:1;paint-order:fill markers stroke" id="path18637-1-1" d="m 24432.737,-16848.004 h -22.442 l 11.221,-19.435 z" transform="matrix(0.14514271,0,0,0.14480708,-3540.3717,2447.0725)"/><g style="font-style:normal;font-weight:400;font-size:2.05990076px;line-height:0%;font-family:'Open Sans';letter-spacing:0;word-spacing:0;fill:#5d9bc7;fill-opacity:1;stroke:none;stroke-width:.1716584px;stroke-linecap:butt;stroke-linejoin:miter;stroke-opacity:1" id="text18641-4-9" aria-label="!"><path style="font-style:normal;font-variant:normal;font-weight:700;font-stretch:normal;font-size:2.50766063px;line-height:1.25;font-family:'Open Sans';-inkscape-font-specification:'Open Sans Bold';text-align:center;text-anchor:middle;fill:#5d9bc7;fill-opacity:1;stroke-width:.1716584px" id="path22566" d="M 4.4083614,6.426172 H 4.1095972 L 4.0471506,5.2298905 H 4.4708081 Z M 4.0422528,6.8449317 q 0,-0.1028533 0.0551,-0.1555043 0.0551,-0.052651 0.1604021,-0.052651 0.1016288,0 0.1567288,0.053876 0.056324,0.053875 0.056324,0.1542799 0,0.096731 -0.056324,0.1530555 -0.056324,0.0551 -0.1567288,0.0551 -0.1028533,0 -0.1591777,-0.053876 -0.056324,-0.0551 -0.056324,-0.1542801 z"/></g></g></svg>