<svg xmlns="http://www.w3.org/2000/svg" xmlns:svg="http://www.w3.org/2000/svg" id="svg44089" width="32" height="32" version="1.1" viewBox="0 0 32 32"><metadata id="metadata44094"/><g id="g14230" transform="matrix(0.61538462,0,0,0.61538462,1484.606,9920.9478)"><path id="path14226" d="m -2407.7541,-16085.54 a 4.7168088,8.0004287 0 0 0 -4.7168,8 4.7168088,8.0004287 0 0 0 4.7168,8 v 0 h 42.5664 v 0 a 4.7168088,8.0004287 0 0 0 4.7168,-8 4.7168088,8.0004287 0 0 0 -4.7168,-8 4.7168088,8.0004287 0 0 0 -0.025,0 h -42.5215 a 4.7168088,8.0004287 0 0 0 -0.02,0 z" style="opacity:1;fill:#fff;fill-opacity:1;stroke:none;stroke-width:4;stroke-miterlimit:4;stroke-dasharray:none;stroke-opacity:1"/><path style="opacity:1;fill:#fff;fill-opacity:.40392157;stroke:#fff;stroke-width:4;stroke-miterlimit:4;stroke-dasharray:none;stroke-opacity:1" id="path14228" d="m -2400.2323,-16098.172 a 3.0491651,11.01941 0 0 0 -3.0491,11.019 3.0491651,11.01941 0 0 0 3.0491,11.02 v 0 h 27.5169 v 0 a 3.0491651,11.01941 0 0 0 3.0492,-11.02 3.0491651,11.01941 0 0 0 -3.0492,-11.019 3.0491651,11.01941 0 0 0 -0.016,0 h -27.4878 a 3.0491651,11.01941 0 0 0 -0.013,0 z"/></g></svg>