<svg xmlns="http://www.w3.org/2000/svg" xmlns:svg="http://www.w3.org/2000/svg" id="svg44089" width="32" height="32" version="1.1" viewBox="0 0 32 32"><metadata id="metadata44094"/><g id="g14274" transform="translate(2245.3205,16097.33)"><g id="g16451" transform="matrix(0.61538343,0,0,0.61538343,-871.69366,-6176.4013)"><g id="g16441" transform="translate(-2245.3205,-16097.33)"><path id="rect14266" d="m 35.867058,-22.018709 h 6.636824 v 14.3693436 h -6.636824 z" style="opacity:1;fill:#5d9bc7;fill-opacity:1;stroke:#5d9bc7;stroke-width:4.36557436;stroke-miterlimit:4;stroke-dasharray:none;stroke-opacity:1"/><path id="path14268" d="m -2289.4358,-17154.137 -26.3463,15.211 v -30.422 z" transform="matrix(0,0.36477336,-0.61582337,0,-10524.733,835.78)" style="opacity:1;fill:#5d9bc7;fill-opacity:1;stroke:#5d9bc7;stroke-width:4;stroke-miterlimit:4;stroke-dasharray:none;stroke-opacity:1"/></g><path style="opacity:1;fill:#eaecee;fill-opacity:1;stroke:#5d9bc7;stroke-width:3.99999976;stroke-miterlimit:4;stroke-dasharray:none;stroke-opacity:1" id="path14270" d="m -2219.8954,-16089.455 a 3.0491651,6.6607317 0 0 0 -3.0492,6.662 3.0491651,6.6607317 0 0 0 3.0492,6.66 v 0 h 27.5169 v 0 a 3.0491651,6.6607317 0 0 0 3.0492,-6.66 3.0491651,6.6607317 0 0 0 -3.0492,-6.662 3.0491651,6.6607317 0 0 0 -0.016,0 h -27.4878 a 3.0491651,6.6607317 0 0 0 -0.013,0 z"/><path id="path14272" d="m -2227.4172,-16085.54 a 4.7168088,8.0003284 0 0 0 -4.7169,8 4.7168088,8.0003284 0 0 0 4.7169,8 v 0 h 42.5664 v 0 a 4.7168088,8.0003284 0 0 0 4.7168,-8 4.7168088,8.0003284 0 0 0 -4.7168,-8 4.7168088,8.0003284 0 0 0 -0.025,0 h -42.5215 a 4.7168088,8.0003284 0 0 0 -0.02,0 z" style="opacity:1;fill:#5d9bc7;fill-opacity:1;stroke:none;stroke-width:4;stroke-miterlimit:4;stroke-dasharray:none;stroke-opacity:1"/></g></g></svg>