<svg xmlns="http://www.w3.org/2000/svg" xmlns:svg="http://www.w3.org/2000/svg" id="svg27848" width="64" height="64" version="1.1" viewBox="0 0 64 64"><metadata id="metadata27853"/><path style="opacity:1;fill:#fff;fill-opacity:1;stroke:none;stroke-width:1;stroke-linecap:round;stroke-linejoin:round;stroke-miterlimit:4;stroke-dasharray:none;stroke-dashoffset:0;stroke-opacity:1" id="rect27190" d="m 12.1155,5.0109 1.87801,0 c 2.77,0 5,2.23 5,5 l 0,9.8755 c 0,2.77 -2.23,5 -5,5 l -1.87801,0 c -2.77,0 -5,-2.23 -5,-5 l 0,-9.8755 c 0,-2.77 2.23,-5 5,-5 z"/><path style="opacity:1;fill:#fff;fill-opacity:1;stroke:none;stroke-width:1;stroke-linecap:round;stroke-linejoin:round;stroke-miterlimit:4;stroke-dasharray:none;stroke-dashoffset:0;stroke-opacity:1" id="rect27192" d="m 50.00649,5.0109 1.87801,0 c 2.77,0 5,2.23 5,5 l 0,9.8755 c 0,2.77 -2.23,5 -5,5 l -1.87801,0 c -2.77,0 -5,-2.23 -5,-5 l 0,-9.8755 c 0,-2.77 2.23,-5 5,-5 z"/><path style="opacity:1;fill:#fff;fill-opacity:1;stroke:none;stroke-width:1;stroke-linecap:round;stroke-linejoin:round;stroke-miterlimit:4;stroke-dasharray:none;stroke-dashoffset:0;stroke-opacity:1" id="rect27194" d="m 31.061,39.1135 1.87801,0 c 2.77,0 5,2.23 5,5 l 0,9.8755 c 0,2.77 -2.23,5 -5,5 l -1.87801,0 c -2.77,0 -5,-2.23 -5,-5 l 0,-9.8755 c 0,-2.77 2.23,-5 5,-5 z"/></svg>