<svg xmlns="http://www.w3.org/2000/svg" xmlns:svg="http://www.w3.org/2000/svg" id="svg27848" width="64" height="64" version="1.1" viewBox="0 0 64 64"><metadata id="metadata27853"/><g id="g27186" transform="translate(-796.79014,-8681.8416)" style="fill:#5d9bc7;fill-opacity:1"><path id="rect27190" d="m 808.90564,8686.8525 1.87801,0 c 2.77,0 5,2.23 5,5 l 0,9.8755 c 0,2.77 -2.23,5 -5,5 l -1.87801,0 c -2.77,0 -5,-2.23 -5,-5 l 0,-9.8755 c 0,-2.77 2.23,-5 5,-5 z" style="opacity:1;fill:#5d9bc7;fill-opacity:1;stroke:none;stroke-width:1;stroke-linecap:round;stroke-linejoin:round;stroke-miterlimit:4;stroke-dasharray:none;stroke-dashoffset:0;stroke-opacity:1"/><path id="rect27192" d="m 846.79663,8686.8525 1.87801,0 c 2.77,0 5,2.23 5,5 l 0,9.8755 c 0,2.77 -2.23,5 -5,5 l -1.87801,0 c -2.77,0 -5,-2.23 -5,-5 l 0,-9.8755 c 0,-2.77 2.23,-5 5,-5 z" style="opacity:1;fill:#5d9bc7;fill-opacity:1;stroke:none;stroke-width:1;stroke-linecap:round;stroke-linejoin:round;stroke-miterlimit:4;stroke-dasharray:none;stroke-dashoffset:0;stroke-opacity:1"/><path id="rect27194" d="m 827.85114,8720.9551 1.87801,0 c 2.77,0 5,2.23 5,5 l 0,9.8755 c 0,2.77 -2.23,5 -5,5 l -1.87801,0 c -2.77,0 -5,-2.23 -5,-5 l 0,-9.8755 c 0,-2.77 2.23,-5 5,-5 z" style="opacity:1;fill:#5d9bc7;fill-opacity:1;stroke:none;stroke-width:1;stroke-linecap:round;stroke-linejoin:round;stroke-miterlimit:4;stroke-dasharray:none;stroke-dashoffset:0;stroke-opacity:1"/></g></svg>